# Blender 3.6.1
# www.blender.org
mtllib small_drill.mtl
o drillbit
v 0.000000 -0.000000 -0.000000
v 0.000000 1.000000 -0.000000
v 0.155330 0.000000 0.375000
v 0.375000 0.000000 0.155330
v 0.375000 -0.000000 -0.155330
v 0.155330 -0.000000 -0.375000
v -0.155330 -0.000000 -0.375000
v -0.375000 -0.000000 -0.155330
v -0.375000 0.000000 0.155330
v -0.155330 0.000000 0.375000
v -0.250000 0.000000 0.000000
v -0.250000 -0.250000 0.000000
v -0.198223 -0.000000 -0.125000
v -0.125000 -0.000000 -0.051777
v -0.125000 0.000000 0.051777
v -0.198223 0.000000 0.125000
v -0.301777 0.000000 0.125000
v -0.375000 0.000000 0.051777
v -0.375000 -0.000000 -0.051777
v -0.301777 -0.000000 -0.125000
v 0.171875 -0.000000 -0.171875
v 0.171875 -0.250000 -0.171875
v 0.223652 -0.000000 -0.296875
v 0.296875 -0.000000 -0.223652
v 0.296875 -0.000000 -0.120098
v 0.223652 -0.000000 -0.046875
v 0.120098 -0.000000 -0.046875
v 0.046875 -0.000000 -0.120098
v 0.046875 -0.000000 -0.223652
v 0.120098 -0.000000 -0.296875
v 0.000000 -0.000000 -0.250000
v 0.000000 -0.250000 -0.250000
v 0.051777 -0.000000 -0.375000
v 0.125000 -0.000000 -0.301777
v 0.125000 -0.000000 -0.198223
v 0.051777 -0.000000 -0.125000
v -0.051777 -0.000000 -0.125000
v -0.125000 -0.000000 -0.198223
v -0.125000 -0.000000 -0.301777
v -0.051777 -0.000000 -0.375000
v 0.000000 0.000000 0.250000
v 0.000000 -0.250000 0.250000
v 0.051777 0.000000 0.125000
v 0.125000 0.000000 0.198223
v 0.125000 0.000000 0.301777
v 0.051777 0.000000 0.375000
v -0.051777 0.000000 0.375000
v -0.125000 0.000000 0.301777
v -0.125000 0.000000 0.198223
v -0.051777 0.000000 0.125000
v 0.250000 0.000000 0.000000
v 0.250000 -0.250000 0.000000
v 0.301777 -0.000000 -0.125000
v 0.375000 -0.000000 -0.051777
v 0.375000 0.000000 0.051777
v 0.301777 0.000000 0.125000
v 0.198223 0.000000 0.125000
v 0.125000 0.000000 0.051777
v 0.125000 -0.000000 -0.051777
v 0.198223 -0.000000 -0.125000
v 0.000000 0.000000 0.000000
v 0.000000 -0.250000 0.000000
v 0.051777 -0.000000 -0.125000
v 0.125000 -0.000000 -0.051777
v 0.125000 0.000000 0.051777
v 0.051777 0.000000 0.125000
v -0.051777 0.000000 0.125000
v -0.125000 0.000000 0.051777
v -0.125000 -0.000000 -0.051777
v -0.051777 -0.000000 -0.125000
v -0.181250 -0.000000 -0.165625
v -0.181250 -0.250000 -0.165625
v -0.129473 -0.000000 -0.290625
v -0.056250 -0.000000 -0.217402
v -0.056250 -0.000000 -0.113848
v -0.129473 -0.000000 -0.040625
v -0.233027 -0.000000 -0.040625
v -0.306250 -0.000000 -0.113848
v -0.306250 -0.000000 -0.217402
v -0.233027 -0.000000 -0.290625
v -0.171875 0.000000 0.171875
v -0.171875 -0.250000 0.171875
v -0.120098 0.000000 0.046875
v -0.046875 0.000000 0.120098
v -0.046875 0.000000 0.223652
v -0.120098 0.000000 0.296875
v -0.223652 0.000000 0.296875
v -0.296875 0.000000 0.223652
v -0.296875 0.000000 0.120098
v -0.223652 0.000000 0.046875
v 0.171875 0.000000 0.171875
v 0.171875 -0.250000 0.171875
v 0.223652 0.000000 0.046875
v 0.296875 0.000000 0.120098
v 0.296875 0.000000 0.223652
v 0.223652 0.000000 0.296875
v 0.120098 0.000000 0.296875
v 0.046875 0.000000 0.223652
v 0.046875 0.000000 0.120098
v 0.120098 0.000000 0.046875
vn -0.0000 -1.0000 -0.0000
vn 0.6621 0.3511 0.6621
vn 0.9363 0.3511 -0.0000
vn 0.6621 0.3511 -0.6621
vn -0.0000 0.3511 -0.9363
vn -0.6621 0.3511 -0.6621
vn -0.9363 0.3511 -0.0000
vn -0.6621 0.3511 0.6621
vn -0.0000 0.3511 0.9363
vn -0.0000 1.0000 -0.0000
vn 0.6325 -0.4472 -0.6325
vn 0.8944 -0.4472 -0.0000
vn 0.6325 -0.4472 0.6325
vn -0.0000 -0.4472 0.8944
vn -0.6325 -0.4472 0.6325
vn -0.8944 -0.4472 -0.0000
vn -0.6325 -0.4472 -0.6325
vn -0.0000 -0.4472 -0.8944
vt 0.525369 0.966437
vt 0.517938 0.984375
vt 0.500000 0.966437
vt 0.753906 0.898093
vt 0.773323 0.898093
vt 0.763614 0.964844
vt 0.523438 0.964959
vt 0.523438 0.984375
vt 0.500000 0.974667
vt 0.722656 0.902000
vt 0.742073 0.902000
vt 0.732364 0.968750
vt 0.500000 0.959006
vt 0.517938 0.966437
vt 0.500000 0.984375
vt 0.691406 0.905906
vt 0.710823 0.905906
vt 0.701114 0.972656
vt 0.500000 0.960938
vt 0.519416 0.960938
vt 0.509708 0.984375
vt 0.664062 0.913718
vt 0.683479 0.913718
vt 0.673771 0.980469
vt 0.507430 0.966437
vt 0.525369 0.984375
vt 0.636719 0.917625
vt 0.656135 0.917625
vt 0.646427 0.984375
vt 0.500000 0.964959
vt 0.523438 0.974667
vt 0.609375 0.921531
vt 0.628791 0.921531
vt 0.619083 0.988281
vt 0.517938 0.984375
vt 0.500000 0.976945
vt 0.517938 0.959006
vt 0.585938 0.925437
vt 0.605354 0.925437
vt 0.595646 0.992188
vt 0.519416 0.984375
vt 0.509708 0.960938
vt 0.562500 0.929343
vt 0.581916 0.929343
vt 0.572208 0.996094
vt 0.549450 0.890145
vt 0.539543 0.914062
vt 0.515625 0.890145
vt 0.832031 0.834712
vt 0.857920 0.834712
vt 0.844975 0.878906
vt 0.546875 0.888174
vt 0.546875 0.914062
vt 0.515625 0.901118
vt 0.792969 0.838618
vt 0.818857 0.838618
vt 0.805913 0.882812
vt 0.515625 0.880238
vt 0.539543 0.890145
vt 0.515625 0.914062
vt 0.753906 0.842524
vt 0.779795 0.842524
vt 0.766850 0.886719
vt 0.515625 0.882812
vt 0.541513 0.882812
vt 0.528569 0.914062
vt 0.714844 0.846430
vt 0.740732 0.846430
vt 0.727788 0.890625
vt 0.525532 0.890145
vt 0.549450 0.914062
vt 0.683594 0.846430
vt 0.709482 0.846430
vt 0.696538 0.890625
vt 0.515625 0.888174
vt 0.546875 0.901118
vt 0.640625 0.854243
vt 0.666513 0.854243
vt 0.653569 0.898438
vt 0.539543 0.914062
vt 0.515625 0.904155
vt 0.539543 0.880238
vt 0.601562 0.858149
vt 0.627451 0.858149
vt 0.614507 0.902344
vt 0.541513 0.914062
vt 0.528569 0.882812
vt 0.566406 0.862055
vt 0.592295 0.862055
vt 0.579350 0.906250
s 0
f 4/1/1 3/2/1 1/3/1
f 3/4/2 4/5/2 2/6/2
f 5/7/1 4/8/1 1/9/1
f 4/10/3 5/11/3 2/12/3
f 6/13/1 5/14/1 1/15/1
f 5/16/4 6/17/4 2/18/4
f 7/19/1 6/20/1 1/21/1
f 6/22/5 7/23/5 2/24/5
f 8/15/1 7/25/1 1/26/1
f 7/27/6 8/28/6 2/29/6
f 9/15/1 8/30/1 1/31/1
f 8/32/7 9/33/7 2/34/7
f 10/35/1 9/36/1 1/37/1
f 9/38/8 10/39/8 2/40/8
f 3/41/1 10/15/1 1/42/1
f 10/43/9 3/44/9 2/45/9
f 14/46/10 13/47/10 11/48/10
f 13/49/11 14/50/11 12/51/11
f 15/52/10 14/53/10 11/54/10
f 14/55/12 15/56/12 12/57/12
f 16/58/10 15/59/10 11/60/10
f 15/61/13 16/62/13 12/63/13
f 17/64/10 16/65/10 11/66/10
f 16/67/14 17/68/14 12/69/14
f 18/60/10 17/70/10 11/71/10
f 17/72/15 18/73/15 12/74/15
f 19/60/10 18/75/10 11/76/10
f 18/77/16 19/78/16 12/79/16
f 20/80/10 19/81/10 11/82/10
f 19/83/17 20/84/17 12/85/17
f 13/86/10 20/60/10 11/87/10
f 20/88/18 13/89/18 12/90/18
f 24/46/10 23/47/10 21/48/10
f 23/49/11 24/50/11 22/51/11
f 25/52/10 24/53/10 21/54/10
f 24/55/12 25/56/12 22/57/12
f 26/58/10 25/59/10 21/60/10
f 25/61/13 26/62/13 22/63/13
f 27/64/10 26/65/10 21/66/10
f 26/67/14 27/68/14 22/69/14
f 28/60/10 27/70/10 21/71/10
f 27/72/15 28/73/15 22/74/15
f 29/60/10 28/75/10 21/76/10
f 28/77/16 29/78/16 22/79/16
f 30/80/10 29/81/10 21/82/10
f 29/83/17 30/84/17 22/85/17
f 23/86/10 30/60/10 21/87/10
f 30/88/18 23/89/18 22/90/18
f 34/46/10 33/47/10 31/48/10
f 33/49/11 34/50/11 32/51/11
f 35/52/10 34/53/10 31/54/10
f 34/55/12 35/56/12 32/57/12
f 36/58/10 35/59/10 31/60/10
f 35/61/13 36/62/13 32/63/13
f 37/64/10 36/65/10 31/66/10
f 36/67/14 37/68/14 32/69/14
f 38/60/10 37/70/10 31/71/10
f 37/72/15 38/73/15 32/74/15
f 39/60/10 38/75/10 31/76/10
f 38/77/16 39/78/16 32/79/16
f 40/80/10 39/81/10 31/82/10
f 39/83/17 40/84/17 32/85/17
f 33/86/10 40/60/10 31/87/10
f 40/88/18 33/89/18 32/90/18
f 44/46/10 43/47/10 41/48/10
f 43/49/11 44/50/11 42/51/11
f 45/52/10 44/53/10 41/54/10
f 44/55/12 45/56/12 42/57/12
f 46/58/10 45/59/10 41/60/10
f 45/61/13 46/62/13 42/63/13
f 47/64/10 46/65/10 41/66/10
f 46/67/14 47/68/14 42/69/14
f 48/60/10 47/70/10 41/71/10
f 47/72/15 48/73/15 42/74/15
f 49/60/10 48/75/10 41/76/10
f 48/77/16 49/78/16 42/79/16
f 50/80/10 49/81/10 41/82/10
f 49/83/17 50/84/17 42/85/17
f 43/86/10 50/60/10 41/87/10
f 50/88/18 43/89/18 42/90/18
f 54/46/10 53/47/10 51/48/10
f 53/49/11 54/50/11 52/51/11
f 55/52/10 54/53/10 51/54/10
f 54/55/12 55/56/12 52/57/12
f 56/58/10 55/59/10 51/60/10
f 55/61/13 56/62/13 52/63/13
f 57/64/10 56/65/10 51/66/10
f 56/67/14 57/68/14 52/69/14
f 58/60/10 57/70/10 51/71/10
f 57/72/15 58/73/15 52/74/15
f 59/60/10 58/75/10 51/76/10
f 58/77/16 59/78/16 52/79/16
f 60/80/10 59/81/10 51/82/10
f 59/83/17 60/84/17 52/85/17
f 53/86/10 60/60/10 51/87/10
f 60/88/18 53/89/18 52/90/18
f 64/46/10 63/47/10 61/48/10
f 63/49/11 64/50/11 62/51/11
f 65/52/10 64/53/10 61/54/10
f 64/55/12 65/56/12 62/57/12
f 66/58/10 65/59/10 61/60/10
f 65/61/13 66/62/13 62/63/13
f 67/64/10 66/65/10 61/66/10
f 66/67/14 67/68/14 62/69/14
f 68/60/10 67/70/10 61/71/10
f 67/72/15 68/73/15 62/74/15
f 69/60/10 68/75/10 61/76/10
f 68/77/16 69/78/16 62/79/16
f 70/80/10 69/81/10 61/82/10
f 69/83/17 70/84/17 62/85/17
f 63/86/10 70/60/10 61/87/10
f 70/88/18 63/89/18 62/90/18
f 74/46/10 73/47/10 71/48/10
f 73/49/11 74/50/11 72/51/11
f 75/52/10 74/53/10 71/54/10
f 74/55/12 75/56/12 72/57/12
f 76/58/10 75/59/10 71/60/10
f 75/61/13 76/62/13 72/63/13
f 77/64/10 76/65/10 71/66/10
f 76/67/14 77/68/14 72/69/14
f 78/60/10 77/70/10 71/71/10
f 77/72/15 78/73/15 72/74/15
f 79/60/10 78/75/10 71/76/10
f 78/77/16 79/78/16 72/79/16
f 80/80/10 79/81/10 71/82/10
f 79/83/17 80/84/17 72/85/17
f 73/86/10 80/60/10 71/87/10
f 80/88/18 73/89/18 72/90/18
f 84/46/10 83/47/10 81/48/10
f 83/49/11 84/50/11 82/51/11
f 85/52/10 84/53/10 81/54/10
f 84/55/12 85/56/12 82/57/12
f 86/58/10 85/59/10 81/60/10
f 85/61/13 86/62/13 82/63/13
f 87/64/10 86/65/10 81/66/10
f 86/67/14 87/68/14 82/69/14
f 88/60/10 87/70/10 81/71/10
f 87/72/15 88/73/15 82/74/15
f 89/60/10 88/75/10 81/76/10
f 88/77/16 89/78/16 82/79/16
f 90/80/10 89/81/10 81/82/10
f 89/83/17 90/84/17 82/85/17
f 83/86/10 90/60/10 81/87/10
f 90/88/18 83/89/18 82/90/18
f 94/46/10 93/47/10 91/48/10
f 93/49/11 94/50/11 92/51/11
f 95/52/10 94/53/10 91/54/10
f 94/55/12 95/56/12 92/57/12
f 96/58/10 95/59/10 91/60/10
f 95/61/13 96/62/13 92/63/13
f 97/64/10 96/65/10 91/66/10
f 96/67/14 97/68/14 92/69/14
f 98/60/10 97/70/10 91/71/10
f 97/72/15 98/73/15 92/74/15
f 99/60/10 98/75/10 91/76/10
f 98/77/16 99/78/16 92/79/16
f 100/80/10 99/81/10 91/82/10
f 99/83/17 100/84/17 92/85/17
f 93/86/10 100/60/10 91/87/10
f 100/88/18 93/89/18 92/90/18
o base
v -0.437500 2.875000 0.437500
v -0.812500 2.875000 0.437500
v -1.062500 0.375000 1.062500
v -1.437500 0.375000 1.062500
v -0.437500 2.875000 0.812500
v -0.812500 2.875000 0.812500
v -1.062500 0.375000 1.437500
v -1.437500 0.375000 1.437500
v -0.812500 2.875000 -0.812500
v -0.812500 3.250000 -0.437500
v -0.812500 2.875000 -0.437500
v -0.437500 2.875000 -0.812500
v -0.437500 3.250000 -0.437500
v -0.437500 2.875000 -0.437500
v -1.062500 0.375000 -1.062500
v -1.062500 0.375000 -1.437500
v -1.000000 -0.000000 -1.000000
v -1.000000 -0.000000 -1.500000
v -1.437500 0.375000 -1.062500
v -1.437500 0.375000 -1.437500
v -1.500000 -0.000000 -1.000000
v -1.500000 -0.000000 -1.500000
v -0.437500 2.875000 0.312500
v -0.437500 2.875000 -0.312500
v -0.812500 2.875000 0.312500
v -0.812500 2.875000 -0.312500
v -0.437500 2.500000 0.312500
v -0.437500 2.500000 -0.312500
v -0.765625 2.187500 0.687500
v -0.765625 2.187500 -0.687500
v -0.765625 2.062500 0.687500
v -0.765625 2.062500 -0.687500
v -0.890625 2.187500 0.687500
v -0.890625 2.187500 -0.687500
v -0.890625 2.062500 0.687500
v -0.890625 2.062500 -0.687500
v 0.812500 3.250000 0.437500
v 0.812500 3.250000 -0.437500
v 0.812500 2.875000 0.437500
v 0.812500 2.875000 -0.437500
v 0.437500 3.250000 0.437500
v 0.437500 3.250000 -0.437500
v 0.437500 2.875000 0.437500
v 0.437500 2.875000 -0.437500
v 0.437500 2.875000 -0.312500
v 0.437500 2.875000 0.312500
v 0.812500 2.875000 -0.312500
v 0.812500 2.875000 0.312500
v 0.437500 2.500000 -0.312500
v 0.437500 2.500000 0.312500
v -0.437500 2.875000 0.812500
v -0.437500 3.250000 0.437500
v -0.437500 2.875000 0.437500
v -0.812500 2.875000 0.812500
v -0.812500 3.250000 0.437500
v -0.812500 2.875000 0.437500
v 0.812500 2.875000 0.812500
v 0.812500 3.250000 0.437500
v 0.812500 2.875000 0.437500
v 0.437500 2.875000 0.812500
v 0.437500 3.250000 0.437500
v 0.437500 2.875000 0.437500
v 0.437500 2.875000 0.437500
v 0.437500 2.875000 0.812500
v 1.062500 0.375000 1.062500
v 1.062500 0.375000 1.437500
v 0.812500 2.875000 0.437500
v 0.812500 2.875000 0.812500
v 1.437500 0.375000 1.062500
v 1.437500 0.375000 1.437500
v 1.062500 0.375000 1.062500
v 1.062500 0.375000 1.437500
v 1.000000 0.000000 1.000000
v 1.000000 0.000000 1.500000
v 1.437500 0.375000 1.062500
v 1.437500 0.375000 1.437500
v 1.500000 0.000000 1.000000
v 1.500000 0.000000 1.500000
v 1.062500 0.375000 -1.062500
v 1.437500 0.375000 -1.062500
v 1.000000 -0.000000 -1.000000
v 1.500000 -0.000000 -1.000000
v 1.062500 0.375000 -1.437500
v 1.437500 0.375000 -1.437500
v 1.000000 -0.000000 -1.500000
v 1.500000 -0.000000 -1.500000
v 0.250000 2.750000 -1.000000
v 0.250000 2.750000 -0.500000
v 0.250000 3.250000 -0.750000
v 0.250000 3.250000 -0.500000
v -0.250000 2.750000 -1.000000
v -0.250000 2.750000 -0.500000
v -0.250000 3.250000 -0.750000
v -0.250000 3.250000 -0.500000
v -0.250000 3.000000 -1.000000
v -0.250000 3.000000 -0.500000
v 0.250000 3.000000 -0.500000
v 0.250000 3.000000 -1.000000
v -0.250000 3.000000 -0.750000
v -0.250000 2.750000 -0.750000
v 0.250000 2.750000 -0.750000
v 0.250000 3.000000 -0.750000
v 0.250000 0.750000 -0.500000
v 0.250000 0.750000 -1.000000
v 0.250000 0.250000 -0.750000
v 0.250000 0.250000 -1.000000
v -0.250000 0.750000 -0.500000
v -0.250000 0.750000 -1.000000
v -0.250000 0.250000 -0.750000
v -0.250000 0.250000 -1.000000
v -0.250000 0.500000 -0.500000
v -0.250000 0.500000 -1.000000
v 0.250000 0.500000 -1.000000
v 0.250000 0.500000 -0.500000
v -0.250000 0.500000 -0.750000
v -0.250000 0.750000 -0.750000
v 0.250000 0.750000 -0.750000
v 0.250000 0.500000 -0.750000
v -0.250000 3.250000 0.437500
v -0.250000 3.250000 0.500000
v -0.250000 2.750000 0.437500
v -0.250000 2.750000 0.500000
v 0.250000 3.250000 0.437500
v 0.250000 3.250000 0.500000
v 0.250000 2.750000 0.437500
v 0.250000 2.750000 0.500000
v -0.250000 0.750000 0.500000
v -0.250000 0.750000 1.000000
v -0.250000 0.250000 0.750000
v -0.250000 0.250000 1.000000
v 0.250000 0.750000 0.500000
v 0.250000 0.750000 1.000000
v 0.250000 0.250000 0.750000
v 0.250000 0.250000 1.000000
v 0.250000 0.500000 0.500000
v 0.250000 0.500000 1.000000
v -0.250000 0.500000 1.000000
v -0.250000 0.500000 0.500000
v 0.250000 0.500000 0.750000
v 0.250000 0.750000 0.750000
v -0.250000 0.750000 0.750000
v -0.250000 0.500000 0.750000
v -0.250000 2.750000 1.000000
v -0.250000 2.750000 0.500000
v -0.250000 3.250000 0.750000
v -0.250000 3.250000 0.500000
v 0.250000 2.750000 1.000000
v 0.250000 2.750000 0.500000
v 0.250000 3.250000 0.750000
v 0.250000 3.250000 0.500000
v 0.250000 3.000000 1.000000
v 0.250000 3.000000 0.500000
v -0.250000 3.000000 0.500000
v -0.250000 3.000000 1.000000
v 0.250000 3.000000 0.750000
v 0.250000 2.750000 0.750000
v -0.250000 2.750000 0.750000
v -0.250000 3.000000 0.750000
v -0.250000 2.750000 0.500000
v -0.250000 2.750000 1.000000
v -0.250000 0.750000 0.500000
v -0.250000 0.750000 1.000000
v 0.250000 2.750000 0.500000
v 0.250000 2.750000 1.000000
v 0.250000 0.750000 0.500000
v 0.250000 0.750000 1.000000
v 0.500000 1.000000 1.500000
v 0.500000 1.000000 1.000000
v 0.500000 0.000000 1.500000
v 0.500000 0.000000 1.000000
v -0.500000 1.000000 1.500000
v -0.500000 1.000000 1.000000
v -0.500000 0.000000 1.500000
v -0.500000 0.000000 1.000000
v 0.984375 2.187500 0.687500
v 0.984375 2.187500 -0.687500
v 0.984375 2.062500 0.687500
v 0.984375 2.062500 -0.687500
v 0.859375 2.187500 0.687500
v 0.859375 2.187500 -0.687500
v 0.859375 2.062500 0.687500
v 0.859375 2.062500 -0.687500
v -1.062500 0.375000 1.062500
v -1.437500 0.375000 1.062500
v -1.000000 0.000000 1.000000
v -1.500000 0.000000 1.000000
v -1.062500 0.375000 1.437500
v -1.437500 0.375000 1.437500
v -1.000000 0.000000 1.500000
v -1.500000 0.000000 1.500000
v 0.437500 2.875000 -0.437500
v 0.812500 2.875000 -0.437500
v 1.062500 0.375000 -1.062500
v 1.437500 0.375000 -1.062500
v 0.437500 2.875000 -0.812500
v 0.812500 2.875000 -0.812500
v 1.062500 0.375000 -1.437500
v 1.437500 0.375000 -1.437500
v 0.500000 2.375000 0.500000
v 0.500000 2.375000 -0.500000
v 0.500000 2.125000 0.500000
v 0.500000 2.125000 -0.500000
v -0.500000 2.375000 0.500000
v -0.500000 2.375000 -0.500000
v -0.500000 2.125000 0.500000
v -0.500000 2.125000 -0.500000
v 0.437500 3.250000 0.437500
v 0.437500 3.250000 -0.437500
v 0.437500 2.375000 0.437500
v 0.437500 2.375000 -0.437500
v -0.437500 3.250000 0.437500
v -0.437500 3.250000 -0.437500
v -0.437500 2.375000 0.437500
v -0.437500 2.375000 -0.437500
v 0.250000 2.750000 -0.500000
v 0.250000 2.750000 -1.000000
v 0.250000 0.750000 -0.500000
v 0.250000 0.750000 -1.000000
v -0.250000 2.750000 -0.500000
v -0.250000 2.750000 -1.000000
v -0.250000 0.750000 -0.500000
v -0.250000 0.750000 -1.000000
v 0.437500 2.875000 -0.812500
v 0.437500 3.250000 -0.437500
v 0.437500 2.875000 -0.437500
v 0.812500 2.875000 -0.812500
v 0.812500 3.250000 -0.437500
v 0.812500 2.875000 -0.437500
v 0.312500 1.937500 0.312500
v 0.312500 1.937500 -0.312500
v 0.312500 1.687500 0.312500
v 0.312500 1.687500 -0.312500
v -0.312500 1.937500 0.312500
v -0.312500 1.937500 -0.312500
v -0.312500 1.687500 0.312500
v -0.312500 1.687500 -0.312500
v -0.500000 1.000000 -1.500000
v -0.500000 1.000000 -1.000000
v -0.500000 -0.000000 -1.500000
v -0.500000 -0.000000 -1.000000
v 0.500000 1.000000 -1.500000
v 0.500000 1.000000 -1.000000
v 0.500000 -0.000000 -1.500000
v 0.500000 -0.000000 -1.000000
v 0.250000 3.250000 -0.437500
v 0.250000 3.250000 -0.500000
v 0.250000 2.750000 -0.437500
v 0.250000 2.750000 -0.500000
v -0.250000 3.250000 -0.437500
v -0.250000 3.250000 -0.500000
v -0.250000 2.750000 -0.437500
v -0.250000 2.750000 -0.500000
v -0.437500 3.250000 0.437500
v -0.437500 3.250000 -0.437500
v -0.437500 2.875000 0.437500
v -0.437500 2.875000 -0.437500
v -0.812500 3.250000 0.437500
v -0.812500 3.250000 -0.437500
v -0.812500 2.875000 0.437500
v -0.812500 2.875000 -0.437500
v -0.437500 2.875000 -0.437500
v -0.437500 2.875000 -0.812500
v -1.062500 0.375000 -1.062500
v -1.062500 0.375000 -1.437500
v -0.812500 2.875000 -0.437500
v -0.812500 2.875000 -0.812500
v -1.437500 0.375000 -1.062500
v -1.437500 0.375000 -1.437500
v 0.000000 1.625000 -0.000000
v 0.500000 2.125000 -0.500000
v 0.500000 2.125000 0.500000
v -0.500000 2.125000 -0.500000
v -0.500000 2.125000 0.500000
vn -0.0000 -0.2425 -0.9701
vn -0.0000 0.2425 0.9701
vn -0.0000 1.0000 -0.0000
vn -0.0000 -1.0000 -0.0000
vn 0.9701 -0.2425 -0.0000
vn -0.9701 0.2425 -0.0000
vn 1.0000 -0.0000 -0.0000
vn -0.0000 0.7071 -0.7071
vn -0.0000 -0.0000 1.0000
vn 0.9864 0.1644 -0.0000
vn -0.9864 0.1644 -0.0000
vn -0.0000 0.1644 0.9864
vn -0.0000 0.1644 -0.9864
vn -0.7071 -0.7071 -0.0000
vn -1.0000 -0.0000 -0.0000
vn -0.0000 -0.0000 -1.0000
vn 0.7071 -0.7071 -0.0000
vn -0.0000 0.7071 0.7071
vn -0.9701 -0.2425 -0.0000
vn 0.9701 0.2425 -0.0000
vn -0.0000 -0.7071 0.7071
vn -0.0000 -0.7071 -0.7071
vn -0.0000 -0.2425 0.9701
vn -0.0000 0.2425 -0.9701
vt 0.015625 0.732135
vt 0.000000 0.731911
vt 0.000000 0.562500
vt 0.015625 0.562500
vt 0.261751 0.964844
vt 0.431385 0.964844
vt 0.431608 0.980469
vt 0.261974 0.980469
vt 0.285156 0.750000
vt 0.300781 0.750000
vt 0.300781 0.765625
vt 0.285156 0.765625
vt 0.457031 0.835938
vt 0.457031 0.851562
vt 0.441406 0.851562
vt 0.441406 0.835938
vt 0.261555 0.984375
vt 0.431190 0.984375
vt 0.431413 1.000000
vt 0.261779 1.000000
vt 0.035156 0.732645
vt 0.019531 0.732422
vt 0.019531 0.562788
vt 0.035156 0.563011
vt 0.222656 0.546875
vt 0.199219 0.570312
vt 0.199219 0.546875
vt 0.453125 0.675781
vt 0.429688 0.699219
vt 0.429688 0.675781
vt 0.398438 0.897656
vt 0.421875 0.897656
vt 0.421875 0.922168
vt 0.398438 0.922168
vt 0.453125 0.648438
vt 0.453125 0.671875
vt 0.429688 0.671875
vt 0.429688 0.648438
vt 0.457031 0.906250
vt 0.433594 0.906250
vt 0.433594 0.882812
vt 0.457031 0.882812
vt 0.226562 0.597656
vt 0.203125 0.597656
vt 0.199219 0.574219
vt 0.230469 0.574219
vt 0.437500 0.812500
vt 0.433594 0.835938
vt 0.410156 0.835938
vt 0.406250 0.812500
vt 0.433594 0.855469
vt 0.457031 0.855469
vt 0.457031 0.878906
vt 0.433594 0.878906
vt 0.140625 0.578125
vt 0.140625 0.609375
vt 0.109375 0.609375
vt 0.109375 0.578125
vt 0.429688 0.867188
vt 0.425781 0.890625
vt 0.402344 0.890625
vt 0.398438 0.867188
vt 0.425781 0.863281
vt 0.402344 0.863281
vt 0.398438 0.839844
vt 0.429688 0.839844
vt 0.273438 0.609375
vt 0.234375 0.609375
vt 0.234375 0.585938
vt 0.273438 0.585938
vt 0.351562 0.769531
vt 0.351562 0.800781
vt 0.312500 0.800781
vt 0.312500 0.769531
vt 0.277344 0.570312
vt 0.300781 0.570312
vt 0.300781 0.609375
vt 0.277344 0.609375
vt 0.109375 0.742188
vt 0.085938 0.742188
vt 0.109375 0.718750
vt 0.175781 0.742188
vt 0.152344 0.742188
vt 0.175781 0.718750
vt 0.468750 0.746094
vt 0.382812 0.746094
vt 0.382812 0.738281
vt 0.468750 0.738281
vt 0.480469 0.625000
vt 0.480469 0.632812
vt 0.394531 0.632812
vt 0.394531 0.625000
vt 0.039062 0.503906
vt 0.046875 0.503906
vt 0.046875 0.589844
vt 0.039062 0.589844
vt 0.058594 0.503906
vt 0.058594 0.589844
vt 0.050781 0.589844
vt 0.050781 0.503906
vt 0.121094 0.734375
vt 0.121094 0.742188
vt 0.113281 0.742188
vt 0.113281 0.734375
vt 0.187500 0.742188
vt 0.179688 0.742188
vt 0.179688 0.734375
vt 0.187500 0.734375
vt 0.207031 0.691406
vt 0.152344 0.691406
vt 0.152344 0.667969
vt 0.207031 0.667969
vt 0.367188 0.804688
vt 0.367188 0.828125
vt 0.312500 0.828125
vt 0.312500 0.804688
vt 0.210938 0.636719
vt 0.234375 0.636719
vt 0.234375 0.691406
vt 0.210938 0.691406
vt 0.335938 0.667969
vt 0.335938 0.722656
vt 0.312500 0.722656
vt 0.312500 0.667969
vt 0.410156 0.558594
vt 0.410156 0.582031
vt 0.386719 0.582031
vt 0.386719 0.558594
vt 0.445312 0.589844
vt 0.421875 0.589844
vt 0.421875 0.566406
vt 0.445312 0.566406
vt 0.371094 0.820312
vt 0.386719 0.820312
vt 0.386719 0.835938
vt 0.371094 0.835938
vt 0.070312 0.625000
vt 0.054688 0.625000
vt 0.054688 0.609375
vt 0.070312 0.609375
vt 0.105469 0.593750
vt 0.105469 0.609375
vt 0.074219 0.609375
vt 0.074219 0.593750
vt 0.437500 0.980469
vt 0.437500 0.964844
vt 0.468750 0.964844
vt 0.468750 0.980469
vt 0.382812 0.781250
vt 0.382812 0.765625
vt 0.414062 0.765625
vt 0.414062 0.781250
vt 0.054688 0.593750
vt 0.414062 0.750000
vt 0.382812 0.750000
vt 0.386719 0.804688
vt 0.425781 0.636719
vt 0.425781 0.660156
vt 0.394531 0.660156
vt 0.394531 0.636719
vt 0.039062 0.609375
vt 0.039062 0.625000
vt 0.074219 0.625000
vt 0.105469 0.625000
vt 0.402344 0.835938
vt 0.402344 0.820312
vt 0.402344 0.804688
vt 0.257812 0.546875
vt 0.257812 0.562500
vt 0.226562 0.562500
vt 0.226562 0.546875
vt 0.039062 0.593750
vt 0.136719 0.574219
vt 0.132812 0.574219
vt 0.132812 0.542969
vt 0.136719 0.542969
vt 0.296875 0.535156
vt 0.296875 0.566406
vt 0.292969 0.566406
vt 0.292969 0.535156
vt 0.332031 0.832031
vt 0.363281 0.832031
vt 0.363281 0.835938
vt 0.332031 0.835938
vt 0.460938 0.640625
vt 0.460938 0.644531
vt 0.429688 0.644531
vt 0.429688 0.640625
vt 0.375000 0.585938
vt 0.375000 0.617188
vt 0.343750 0.617188
vt 0.343750 0.585938
vt 0.410156 0.617188
vt 0.378906 0.617188
vt 0.378906 0.585938
vt 0.410156 0.585938
vt 0.097656 1.000000
vt 0.066406 1.000000
vt 0.066406 0.875000
vt 0.097656 0.875000
vt 0.132812 0.875000
vt 0.132812 1.000000
vt 0.101562 1.000000
vt 0.101562 0.875000
vt 0.359375 0.656250
vt 0.390625 0.656250
vt 0.390625 0.687500
vt 0.359375 0.687500
vt 0.390625 0.621094
vt 0.390625 0.652344
vt 0.359375 0.652344
vt 0.359375 0.621094
vt 0.230469 0.406250
vt 0.230469 0.531250
vt 0.199219 0.531250
vt 0.199219 0.406250
vt 0.187500 0.554688
vt 0.156250 0.554688
vt 0.156250 0.429688
vt 0.187500 0.429688
vt 0.292969 0.960938
vt 0.261719 0.960938
vt 0.261719 0.898438
vt 0.292969 0.898438
vt 0.292969 0.832031
vt 0.292969 0.894531
vt 0.261719 0.894531
vt 0.261719 0.832031
vt 0.273438 0.648438
vt 0.273438 0.710938
vt 0.242188 0.710938
vt 0.242188 0.648438
vt 0.277344 0.648438
vt 0.308594 0.648438
vt 0.308594 0.710938
vt 0.277344 0.710938
vt 0.199219 0.804688
vt 0.199219 0.867188
vt 0.136719 0.867188
vt 0.136719 0.804688
vt 0.199219 0.933594
vt 0.136719 0.933594
vt 0.136719 0.871094
vt 0.199219 0.871094
vt 0.394531 0.855469
vt 0.332031 0.855469
vt 0.332031 0.839844
vt 0.394531 0.839844
vt 0.417969 0.785156
vt 0.417969 0.800781
vt 0.355469 0.800781
vt 0.355469 0.785156
vt 0.000000 0.937500
vt 0.062500 0.937500
vt 0.062500 1.000000
vt 0.000000 1.000000
vt 0.062500 0.871094
vt 0.062500 0.933594
vt 0.000000 0.933594
vt 0.000000 0.871094
vt 0.421875 0.710938
vt 0.421875 0.726562
vt 0.359375 0.726562
vt 0.359375 0.710938
vt 0.421875 0.707031
vt 0.359375 0.707031
vt 0.359375 0.691406
vt 0.421875 0.691406
vt 0.191406 0.800781
vt 0.136719 0.800781
vt 0.136719 0.746094
vt 0.191406 0.746094
vt 0.250000 0.746094
vt 0.250000 0.800781
vt 0.195312 0.800781
vt 0.195312 0.746094
vt 0.203125 0.945312
vt 0.257812 0.945312
vt 0.257812 1.000000
vt 0.203125 1.000000
vt 0.257812 0.886719
vt 0.257812 0.941406
vt 0.203125 0.941406
vt 0.203125 0.886719
vt 0.257812 0.828125
vt 0.257812 0.882812
vt 0.203125 0.882812
vt 0.203125 0.828125
vt 0.308594 0.824219
vt 0.253906 0.824219
vt 0.253906 0.769531
vt 0.308594 0.769531
vt 0.097656 0.746094
vt 0.097656 0.871094
vt 0.066406 0.871094
vt 0.066406 0.746094
vt 0.132812 0.871094
vt 0.101562 0.871094
vt 0.101562 0.746094
vt 0.132812 0.746094
vt 0.242188 0.824219
vt 0.203125 0.824219
vt 0.203125 0.808594
vt 0.242188 0.808594
vt 0.273438 0.566406
vt 0.273438 0.582031
vt 0.234375 0.582031
vt 0.234375 0.566406
vt 0.304688 0.726562
vt 0.343750 0.726562
vt 0.343750 0.765625
vt 0.304688 0.765625
vt 0.148438 0.652344
vt 0.148438 0.691406
vt 0.109375 0.691406
vt 0.109375 0.652344
vt 0.457031 0.750000
vt 0.457031 0.765625
vt 0.417969 0.765625
vt 0.417969 0.750000
vt 0.382812 0.582031
vt 0.343750 0.582031
vt 0.343750 0.566406
vt 0.382812 0.566406
vt 0.199219 0.937500
vt 0.199219 1.000000
vt 0.136719 1.000000
vt 0.136719 0.937500
vt 0.062500 0.804688
vt 0.062500 0.867188
vt 0.000000 0.867188
vt 0.000000 0.804688
vt 0.109375 0.697993
vt 0.171875 0.697993
vt 0.140625 0.742188
vt 0.238281 0.717524
vt 0.300781 0.717524
vt 0.269531 0.761719
vt 0.042969 0.697993
vt 0.105469 0.697993
vt 0.074219 0.742188
vt 0.175781 0.697993
vt 0.238281 0.697993
vt 0.207031 0.742188
s 0
usemtl 
f 102/91/19 101/92/19 103/93/19 104/94/19
f 107/95/20 105/96/20 106/97/20 108/98/20
f 105/99/21 101/100/21 102/101/21 106/102/21
f 104/103/22 103/104/22 107/105/22 108/106/22
f 103/107/23 101/108/23 105/109/23 107/110/23
f 106/111/24 102/112/24 104/113/24 108/114/24
f 109/115/25 110/116/25 111/117/25
f 112/118/25 113/119/25 114/120/25
f 112/121/26 109/122/26 110/123/26 113/124/26
f 111/125/22 109/126/22 112/127/22 114/128/22
f 113/129/27 110/130/27 111/131/27 114/132/27
f 116/133/28 115/134/28 117/135/28 118/136/28
f 121/137/29 119/138/29 120/139/29 122/140/29
f 119/141/21 115/142/21 116/143/21 120/144/21
f 118/145/22 117/146/22 121/147/22 122/148/22
f 117/149/30 115/150/30 119/151/30 121/152/30
f 120/153/31 116/154/31 118/155/31 122/156/31
f 124/157/25 123/158/25 127/159/25 128/160/25
f 127/161/32 125/162/32 126/163/32 128/164/32
f 125/165/21 123/166/21 124/167/21 126/168/21
f 123/169/27 125/170/27 127/171/27
f 124/172/27 126/173/27 128/174/27
f 130/175/25 129/176/25 131/177/25 132/178/25
f 135/179/33 133/180/33 134/181/33 136/182/33
f 133/183/21 129/184/21 130/185/21 134/186/21
f 132/187/22 131/188/22 135/189/22 136/190/22
f 131/191/27 129/192/27 133/193/27 135/194/27
f 134/195/34 130/196/34 132/197/34 136/198/34
f 138/199/25 137/200/25 139/201/25 140/202/25
f 143/203/33 141/204/33 142/205/33 144/206/33
f 141/207/21 137/208/21 138/209/21 142/210/21
f 140/211/22 139/212/22 143/213/22 144/214/22
f 139/215/27 137/216/27 141/217/27 143/218/27
f 142/219/34 138/220/34 140/221/34 144/222/34
f 146/157/33 145/158/33 149/159/33 150/160/33
f 149/161/35 147/162/35 148/163/35 150/164/35
f 147/165/21 145/166/21 146/167/21 148/168/21
f 145/169/34 147/170/34 149/171/34
f 146/172/34 148/173/34 150/174/34
f 151/115/33 152/116/33 153/117/33
f 154/118/33 155/119/33 156/120/33
f 154/121/36 151/122/36 152/123/36 155/124/36
f 153/125/22 151/126/22 154/127/22 156/128/22
f 155/129/34 152/130/34 153/131/34 156/132/34
f 157/115/33 158/116/33 159/117/33
f 160/118/33 161/119/33 162/120/33
f 160/121/36 157/122/36 158/123/36 161/124/36
f 159/125/22 157/126/22 160/127/22 162/128/22
f 161/129/34 158/130/34 159/131/34 162/132/34
f 164/91/37 163/92/37 165/93/37 166/94/37
f 169/95/38 167/96/38 168/97/38 170/98/38
f 167/99/21 163/100/21 164/101/21 168/102/21
f 166/103/22 165/104/22 169/105/22 170/106/22
f 165/107/19 163/108/19 167/109/19 169/110/19
f 168/111/20 164/112/20 166/113/20 170/114/20
f 172/133/29 171/134/29 173/135/29 174/136/29
f 177/137/28 175/138/28 176/139/28 178/140/28
f 175/141/21 171/142/21 172/143/21 176/144/21
f 174/145/22 173/146/22 177/147/22 178/148/22
f 173/149/31 171/150/31 175/151/31 177/152/31
f 176/153/30 172/154/30 174/155/30 178/156/30
f 180/133/30 179/134/30 181/135/30 182/136/30
f 185/137/31 183/138/31 184/139/31 186/140/31
f 183/141/21 179/142/21 180/143/21 184/144/21
f 182/145/22 181/146/22 185/147/22 186/148/22
f 181/149/29 179/150/29 183/151/29 185/152/29
f 184/153/28 180/154/28 182/155/28 186/156/28
f 198/223/25 202/224/25 201/225/25 187/226/25
f 191/227/33 200/228/33 199/229/33 195/230/33
f 187/231/22 201/232/22 200/233/22 191/234/22
f 191/235/34 195/236/34 198/237/34 187/238/34
f 188/239/27 197/240/27 196/241/27 192/242/27
f 195/230/33 199/229/33 193/243/33
f 194/244/27 196/241/27 197/240/27 190/245/27
f 189/246/25 202/224/25 198/223/25
f 189/247/26 198/248/26 195/249/26 193/250/26
f 196/251/33 199/229/33 200/228/33 192/252/33
f 192/253/22 200/233/22 201/232/22 188/254/22
f 188/255/25 201/225/25 202/224/25 197/256/25
f 197/256/25 202/224/25 189/246/25 190/257/25
f 190/258/21 189/259/21 193/260/21 194/261/21
f 194/262/33 193/243/33 199/229/33 196/251/33
f 214/223/25 218/224/25 217/225/25 203/226/25
f 207/227/33 216/228/33 215/229/33 211/230/33
f 203/231/21 217/232/21 216/233/21 207/234/21
f 207/235/27 211/236/27 214/237/27 203/238/27
f 204/239/34 213/240/34 212/241/34 208/242/34
f 211/230/33 215/229/33 209/243/33
f 210/244/34 212/241/34 213/240/34 206/245/34
f 205/246/25 218/224/25 214/223/25
f 205/247/39 214/248/39 211/249/39 209/250/39
f 212/251/33 215/229/33 216/228/33 208/252/33
f 208/253/21 216/233/21 217/232/21 204/254/21
f 204/255/25 217/225/25 218/224/25 213/256/25
f 213/256/25 218/224/25 205/246/25 206/257/25
f 206/258/22 205/259/22 209/260/22 210/261/22
f 210/262/33 209/243/33 215/229/33 212/251/33
f 220/263/33 219/264/33 221/265/33 222/266/33
f 225/267/25 223/268/25 224/269/25 226/270/25
f 223/271/21 219/272/21 220/273/21 224/274/21
f 222/275/22 221/276/22 225/277/22 226/278/22
f 221/279/34 219/280/34 223/281/34 225/282/34
f 224/283/27 220/284/27 222/285/27 226/286/27
f 238/223/33 242/224/33 241/225/33 227/226/33
f 231/227/25 240/228/25 239/229/25 235/230/25
f 227/231/21 241/232/21 240/233/21 231/234/21
f 231/235/34 235/236/34 238/237/34 227/238/34
f 228/239/27 237/240/27 236/241/27 232/242/27
f 235/230/25 239/229/25 233/243/25
f 234/244/27 236/241/27 237/240/27 230/245/27
f 229/246/33 242/224/33 238/223/33
f 229/247/40 238/248/40 235/249/40 233/250/40
f 236/251/25 239/229/25 240/228/25 232/252/25
f 232/253/21 240/233/21 241/232/21 228/254/21
f 228/255/33 241/225/33 242/224/33 237/256/33
f 237/256/33 242/224/33 229/246/33 230/257/33
f 230/258/22 229/259/22 233/260/22 234/261/22
f 234/262/25 233/243/25 239/229/25 236/251/25
f 254/223/33 258/224/33 257/225/33 243/226/33
f 247/227/25 256/228/25 255/229/25 251/230/25
f 243/231/22 257/232/22 256/233/22 247/234/22
f 247/235/27 251/236/27 254/237/27 243/238/27
f 244/239/34 253/240/34 252/241/34 248/242/34
f 251/230/25 255/229/25 249/243/25
f 250/244/34 252/241/34 253/240/34 246/245/34
f 245/246/33 258/224/33 254/223/33
f 245/247/36 254/248/36 251/249/36 249/250/36
f 252/251/25 255/229/25 256/228/25 248/252/25
f 248/253/22 256/233/22 257/232/22 244/254/22
f 244/255/33 257/225/33 258/224/33 253/256/33
f 253/256/33 258/224/33 245/246/33 246/257/33
f 246/258/21 245/259/21 249/260/21 250/261/21
f 250/262/25 249/243/25 255/229/25 252/251/25
f 260/287/33 259/288/33 261/289/33 262/290/33
f 265/291/25 263/292/25 264/293/25 266/294/25
f 263/295/21 259/296/21 260/297/21 264/298/21
f 262/299/22 261/300/22 265/301/22 266/302/22
f 261/303/34 259/304/34 263/305/34 265/306/34
f 264/307/27 260/308/27 262/309/27 266/310/27
f 268/311/25 267/312/25 269/313/25 270/314/25
f 273/315/33 271/316/33 272/317/33 274/318/33
f 271/319/21 267/320/21 268/321/21 272/322/21
f 270/323/22 269/324/22 273/325/22 274/326/22
f 269/327/27 267/328/27 271/329/27 273/330/27
f 272/331/34 268/332/34 270/333/34 274/334/34
f 276/175/25 275/176/25 277/177/25 278/178/25
f 281/179/33 279/180/33 280/181/33 282/182/33
f 279/183/21 275/184/21 276/185/21 280/186/21
f 278/187/22 277/188/22 281/189/22 282/190/22
f 277/191/27 275/192/27 279/193/27 281/194/27
f 280/195/34 276/196/34 278/197/34 282/198/34
f 284/133/31 283/134/31 285/135/31 286/136/31
f 289/137/30 287/138/30 288/139/30 290/140/30
f 287/141/21 283/142/21 284/143/21 288/144/21
f 286/145/22 285/146/22 289/147/22 290/148/22
f 285/149/28 283/150/28 287/151/28 289/152/28
f 288/153/29 284/154/29 286/155/29 290/156/29
f 292/91/41 291/92/41 293/93/41 294/94/41
f 297/95/42 295/96/42 296/97/42 298/98/42
f 295/99/21 291/100/21 292/101/21 296/102/21
f 294/103/22 293/104/22 297/105/22 298/106/22
f 293/107/37 291/108/37 295/109/37 297/110/37
f 296/111/38 292/112/38 294/113/38 298/114/38
f 300/335/25 299/336/25 301/337/25 302/338/25
f 305/339/33 303/340/33 304/341/33 306/342/33
f 303/343/21 299/344/21 300/345/21 304/346/21
f 302/347/22 301/348/22 305/349/22 306/350/22
f 301/351/27 299/352/27 303/353/27 305/354/27
f 304/355/34 300/356/34 302/357/34 306/358/34
f 308/359/25 307/360/25 309/361/25 310/362/25
f 313/363/33 311/364/33 312/365/33 314/366/33
f 311/367/21 307/368/21 308/369/21 312/370/21
f 310/371/22 309/372/22 313/373/22 314/374/22
f 309/375/27 307/376/27 311/377/27 313/378/27
f 312/379/34 308/380/34 310/381/34 314/382/34
f 316/287/25 315/288/25 317/289/25 318/290/25
f 321/291/33 319/292/33 320/293/33 322/294/33
f 319/295/21 315/296/21 316/297/21 320/298/21
f 318/299/22 317/300/22 321/301/22 322/302/22
f 317/383/27 315/384/27 319/385/27 321/386/27
f 320/387/34 316/388/34 318/389/34 322/390/34
f 323/115/25 324/116/25 325/117/25
f 326/118/25 327/119/25 328/120/25
f 326/121/26 323/122/26 324/123/26 327/124/26
f 325/125/22 323/126/22 326/127/22 328/128/22
f 327/129/27 324/130/27 325/131/27 328/132/27
f 330/391/25 329/392/25 331/393/25 332/394/25
f 335/395/33 333/396/33 334/397/33 336/398/33
f 333/399/21 329/400/21 330/401/21 334/402/21
f 332/403/22 331/404/22 335/405/22 336/406/22
f 331/407/27 329/408/27 333/409/27 335/410/27
f 334/411/34 330/412/34 332/413/34 336/414/34
f 338/311/33 337/312/33 339/313/33 340/314/33
f 343/315/25 341/316/25 342/317/25 344/318/25
f 341/319/21 337/320/21 338/321/21 342/322/21
f 340/323/22 339/324/22 343/325/22 344/326/22
f 339/415/34 337/416/34 341/417/34 343/418/34
f 342/331/27 338/332/27 340/333/27 344/334/27
f 346/263/25 345/264/25 347/265/25 348/266/25
f 351/267/33 349/268/33 350/269/33 352/270/33
f 349/271/21 345/272/21 346/273/21 350/274/21
f 348/275/22 347/276/22 351/277/22 352/278/22
f 347/279/27 345/280/27 349/281/27 351/282/27
f 350/283/34 346/284/34 348/285/34 352/286/34
f 354/199/25 353/200/25 355/201/25 356/202/25
f 359/203/33 357/204/33 358/205/33 360/206/33
f 357/207/21 353/208/21 354/209/21 358/210/21
f 356/211/22 355/212/22 359/213/22 360/214/22
f 355/215/27 353/216/27 357/217/27 359/218/27
f 358/219/34 354/220/34 356/221/34 360/222/34
f 362/91/23 361/92/23 363/93/23 364/94/23
f 367/95/24 365/96/24 366/97/24 368/98/24
f 365/99/21 361/100/21 362/101/21 366/102/21
f 364/103/22 363/104/22 367/105/22 368/106/22
f 363/107/41 361/108/41 365/109/41 367/110/41
f 366/111/42 362/112/42 364/113/42 368/114/42
f 371/419/21 370/420/21 372/421/21 373/422/21
f 370/423/35 371/424/35 369/425/35
f 372/426/40 370/427/40 369/428/40
f 371/429/39 373/430/39 369/431/39
f 373/432/32 372/433/32 369/434/32
o mining_pipe
v 0.000000 0.062500 -0.000000
v 0.000000 1.687500 -0.000000
v 0.103553 0.062500 0.250000
v 0.103553 1.687500 0.250000
v 0.250000 0.062500 0.103553
v 0.250000 1.687500 0.103553
v 0.250000 0.062500 -0.103553
v 0.250000 1.687500 -0.103553
v 0.103553 0.062500 -0.250000
v 0.103553 1.687500 -0.250000
v -0.103553 0.062500 -0.250000
v -0.103553 1.687500 -0.250000
v -0.250000 0.062500 -0.103553
v -0.250000 1.687500 -0.103553
v -0.250000 0.062500 0.103553
v -0.250000 1.687500 0.103553
v -0.103553 0.062500 0.250000
v -0.103553 1.687500 0.250000
vn -0.0000 -1.0000 -0.0000
vn 0.7071 -0.0000 0.7071
vn -0.0000 1.0000 -0.0000
vn 1.0000 -0.0000 -0.0000
vn 0.7071 -0.0000 -0.7071
vn -0.0000 -0.0000 -1.0000
vn -0.7071 -0.0000 -0.7071
vn -1.0000 -0.0000 -0.0000
vn -0.7071 -0.0000 0.7071
vn -0.0000 -0.0000 1.0000
vt 0.304688 0.635379
vt 0.295534 0.644531
vt 0.289062 0.628906
vt 0.312500 0.562500
vt 0.324219 0.562500
vt 0.324219 0.664062
vt 0.312500 0.664062
vt 0.131472 0.617188
vt 0.140625 0.626340
vt 0.125000 0.632812
vt 0.304688 0.622434
vt 0.332031 0.859375
vt 0.343750 0.859375
vt 0.343750 0.960938
vt 0.332031 0.960938
vt 0.140625 0.639284
vt 0.295535 0.613281
vt 0.328125 0.562500
vt 0.339844 0.562500
vt 0.339844 0.664062
vt 0.328125 0.664062
vt 0.131472 0.648438
vt 0.282591 0.613281
vt 0.152344 0.562500
vt 0.164062 0.562500
vt 0.164062 0.664062
vt 0.152344 0.664062
vt 0.118528 0.648438
vt 0.273438 0.622434
vt 0.343750 0.621094
vt 0.355469 0.621094
vt 0.355469 0.722656
vt 0.343750 0.722656
vt 0.109375 0.639285
vt 0.273438 0.635378
vt 0.167969 0.562500
vt 0.179688 0.562500
vt 0.179688 0.664062
vt 0.167969 0.664062
vt 0.109375 0.626341
vt 0.282590 0.644531
vt 0.347656 0.859375
vt 0.359375 0.859375
vt 0.359375 0.960938
vt 0.347656 0.960938
vt 0.118528 0.617188
vt 0.183594 0.562500
vt 0.195312 0.562500
vt 0.195312 0.664062
vt 0.183594 0.664062
s 0
f 378/435/43 376/436/43 374/437/43
f 376/438/44 378/439/44 379/440/44 377/441/44
f 377/442/45 379/443/45 375/444/45
f 380/445/43 378/435/43 374/437/43
f 378/446/46 380/447/46 381/448/46 379/449/46
f 379/443/45 381/450/45 375/444/45
f 382/451/43 380/445/43 374/437/43
f 380/452/47 382/453/47 383/454/47 381/455/47
f 381/450/45 383/456/45 375/444/45
f 384/457/43 382/451/43 374/437/43
f 382/458/48 384/459/48 385/460/48 383/461/48
f 383/456/45 385/462/45 375/444/45
f 386/463/43 384/457/43 374/437/43
f 384/464/49 386/465/49 387/466/49 385/467/49
f 385/462/45 387/468/45 375/444/45
f 388/469/43 386/463/43 374/437/43
f 386/470/50 388/471/50 389/472/50 387/473/50
f 387/468/45 389/474/45 375/444/45
f 390/475/43 388/469/43 374/437/43
f 388/476/51 390/477/51 391/478/51 389/479/51
f 389/474/45 391/480/45 375/444/45
f 376/436/43 390/475/43 374/437/43
f 390/481/52 376/482/52 377/483/52 391/484/52
f 391/480/45 377/442/45 375/444/45
